<?xml version="1.0" encoding="utf-8"?>
<!-- Generator: Adobe Illustrator 25.2.0, SVG Export Plug-In . SVG Version: 6.00 Build 0)  -->
<svg version="1.1" id="Layer_1" xmlns="http://www.w3.org/2000/svg" xmlns:xlink="http://www.w3.org/1999/xlink" x="0px" y="0px"
	 width="256px" height="256px" viewBox="0 0 256 256" style="enable-background:new 0 0 256 256;" xml:space="preserve">
<radialGradient id="SVGID_1_" cx="131.8344" cy="128" r="397.4073" gradientTransform="matrix(0.3238 0 0 0.3273 85.3075 86.1038)" gradientUnits="userSpaceOnUse">
	<stop  offset="0.2849" style="stop-color:#E5AE2E"/>
	<stop  offset="1" style="stop-color:#D98525"/>
</radialGradient>
<rect style="fill:url(#SVGID_1_);" width="256" height="256"/>
<g>
	<path style="fill:#FFFFFF;" d="M215.543,92.276L215.543,92.276c-4.703,8.258-13.89,11.405-22.006,9.403
		c-22.296,29.205-34.758,57.871-34.942,58.298c-3.289,7.737-10.548,13.015-18.937,13.757c-0.671,0.059-1.346,0.089-2.01,0.089
		c-7.716,0-14.841-3.856-19.058-10.314c-8.583-13.145-9.697-14.417-28.287-35.656l-5.882-6.725
		c-4.004-4.581-5.984-10.443-5.576-16.51c0.407-6.067,3.153-11.612,7.731-15.613c4.15-3.627,9.469-5.625,14.976-5.625
		c6.572,0,12.821,2.837,17.144,7.782l5.868,6.707c3.733,4.265,6.817,7.789,9.447,10.823c6.571-11.136,15.174-24.347,25.701-37.742
		c-0.239-0.163-0.478-0.328-0.719-0.486c-7.248-4.755-6.107-15.752,2.197-18.542l-0.005-0.002
		c15.058-4.433,15.1-27.877-0.366-32.077c-15.004-5.252-28.264,13.791-18.621,26.031c5.16,7.102-0.333,16.955-9.029,16.378
		c-3.017-0.275-6.022-0.326-8.995-0.165c-0.315,0.017-0.516-0.312-0.367-0.59c4.481-8.389,0.042-19.364-9.203-22.101
		c-17.234-5.517-28.124,18.991-12.804,28.162c-0.008,0.004-0.017,0.008-0.025,0.011l0.01-0.009
		c-11.522,5.206-24.279-4.279-22.61-16.812l-0.002,0.002c2.826-19.967-26.858-26.707-32.807-7.226
		c-3.439,10.472,4.734,21.759,15.715,21.852l-0.001,0.001c12.527,0.286,19.898,14.104,13.29,24.649
		c-1.659,2.508-3.15,5.158-4.453,7.939c-0.16,0.341-0.65,0.296-0.742-0.068c-3.64-14.359-25.585-15.36-29.931-0.422
		c-4.909,14.858,13.996,26.52,25.104,16.429c0.253-0.23,0.666-0.044,0.666,0.298c-0.029,18.827-13.512,33.596-31.958,21.879
		c-0.012-0.007-0.023-0.016-0.034-0.024c-8.262-6.683-21.507-2.606-24.467,7.675c-2.554,8.222,2.041,16.957,10.264,19.511
		c7.456,2.316,15.333-1.247,18.641-8.062c6.896-13.963,26.677-14.366,34.128-0.675l-0.004-0.016
		c1.401,2.576,2.981,5.054,4.731,7.415c0.232,0.314-0.068,0.733-0.44,0.614c-19.192-6.15-29.341,22.999-9.418,29.702
		c11.43,3.958,22.933-7.676,19.745-18.828c-0.11-0.383,0.328-0.676,0.637-0.423c2.789,2.292,5.8,4.358,9.012,6.162
		c7.661,4.548,6.579,16.03-1.882,19.02c-13.75,4.271-13.645,25.739,0.552,29.593c13.868,4.853,26.11-12.722,17.244-24.041
		c-0.017-0.022-0.033-0.047-0.045-0.072c-12.859-26.713,45.172-20.346,28.791,8.98c-0.006,0.01-0.012,0.021-0.019,0.03
		c-5.855,8.395-1.572,20.732,8.297,23.613c18.238,5.726,28.475-21.084,11.217-29.01l0.004-0.001
		c-11.897-5.557-12.727-22.16-1.444-28.876l-0.008,0.002c2.706-1.609,5.292-3.422,7.735-5.426c0.808-0.663,2.036-0.037,1.966,1.006
		c-1.12,16.686,24.625,22.916,30.15,5.216c3.821-10.999-6.968-21.941-17.611-19.766c-1.085,0.222-1.919-0.971-1.28-1.875
		c5.713-8.093,18.315-8.817,23.013,1.34l0.002-0.005c5.122,12.63,25.116,11.663,28.76-1.739c2.523-8.124-2.017-16.755-10.142-19.279
		c-4.392-1.364-8.93-0.661-12.573,1.554l0.002-0.005c-8.566,5.208-19.397-0.956-19.532-10.76c0-0.026,0.001-0.052,0.005-0.078
		c2.313-16.717,19.577-20.932,32.599-13.482c4,2.288,8.775,2.984,13.123,1.455c4.859-1.708,8.876-5.613,10.521-10.909
		C252.323,86.656,225.085,75.076,215.543,92.276z"/>
	<path style="fill:#FFFFFF;" d="M137.647,163.397c-4.14,0-8.037-2.081-10.327-5.588c-8.985-13.759-10.509-15.501-29.172-36.823
		l-5.881-6.723c-4.484-5.13-3.96-12.923,1.169-17.407c5.13-4.484,12.923-3.96,17.407,1.169l5.871,6.711
		c9.459,10.807,14.792,16.901,19.006,22.198c12.943-24.269,38.958-65.991,76.847-93.781c5.494-4.029,13.214-2.841,17.243,2.652
		c4.03,5.494,2.842,13.214-2.651,17.244c-49.469,36.282-77.873,102.172-78.154,102.833c-1.782,4.192-5.73,7.064-10.267,7.466
		C138.374,163.38,138.009,163.397,137.647,163.397z"/>
</g>
<g>
</g>
<g>
</g>
<g>
</g>
<g>
</g>
<g>
</g>
<g>
</g>
</svg>
